<svg width="150" height="24" viewBox="0 0 150 24" fill="none" xmlns="http://www.w3.org/2000/svg">
    <path d="M1.2642 19.375L1.2642 4.82955L11.0653 4.82955L11.0653 7.36506L4.33949 7.36506L4.33949 10.831L10.5611 10.831L10.5611 13.3665L4.33949 13.3665L4.33949 16.8395L11.0938 16.8395L11.0938 19.375L1.2642 19.375ZM20.2557 10.902L20.2557 13.3026L13.6222 13.3026L13.6222 10.902L20.2557 10.902ZM30.7813 9.01278Q30.696 8.15341 30.0462 7.67756Q29.3963 7.2017 28.2955 7.2017Q27.1662 7.2017 26.5625 7.66335Q25.9588 8.125 25.9588 8.82813Q25.9446 9.60938 26.63 10.0107Q27.3153 10.4119 28.2599 10.6321L29.5668 10.9446Q30.831 11.2287 31.8146 11.7685Q32.7983 12.3082 33.3629 13.157Q33.9276 14.0057 33.9276 15.2202Q33.9205 17.2159 32.4325 18.3984Q30.9446 19.581 28.2813 19.581Q25.6321 19.581 24.0554 18.3736Q22.4787 17.1662 22.4219 14.8082L25.3977 14.8082Q25.4759 15.902 26.2607 16.4524Q27.0455 17.0028 28.2457 17.0028Q29.4176 17.0028 30.1172 16.5057Q30.8168 16.0085 30.8239 15.2131Q30.8168 14.4744 30.1776 14.0767Q29.5384 13.679 28.3523 13.3949L26.7685 12.9972Q24.929 12.5568 23.8636 11.598Q22.7983 10.6392 22.8054 9.03409Q22.7983 7.71307 23.5121 6.7223Q24.2259 5.73153 25.4759 5.18111Q26.7259 4.63068 28.3168 4.63068Q29.9361 4.63068 31.147 5.18466Q32.358 5.73864 33.0327 6.72585Q33.7074 7.71307 33.7287 9.01278L30.7813 9.01278ZM35.9304 19.375L35.9304 4.82955L38.956 4.82955L38.956 12.6065L39.1193 12.6065L42.6136 8.46591L46.0866 8.46591L42.0384 13.1889L46.2926 19.375L42.7486 19.375L39.7727 14.9787L38.956 15.9091L38.956 19.375L35.9304 19.375ZM47.5639 19.375L47.5639 8.46591L50.5895 8.46591L50.5895 19.375L47.5639 19.375ZM49.0838 7.05966Q48.4162 7.05966 47.9332 6.60866Q47.4503 6.15767 47.4503 5.52557Q47.4503 4.89347 47.9332 4.44602Q48.4162 3.99858 49.0838 3.99858Q49.7585 3.99858 50.2415 4.44602Q50.7244 4.89347 50.7244 5.52557Q50.7244 6.15767 50.2415 6.60866Q49.7585 7.05966 49.0838 7.05966ZM56.0298 13.0682L56.0298 19.375L53.0043 19.375L53.0043 8.46591L55.8878 8.46591L55.8878 10.3906L56.0156 10.3906Q56.3849 9.43892 57.2337 8.88139Q58.0824 8.32386 59.2969 8.32386Q61.0014 8.32386 62.0313 9.42116Q63.0611 10.5185 63.0611 12.429L63.0611 19.375L60.0355 19.375L60.0355 12.9688Q60.0426 11.9673 59.5241 11.4027Q59.0057 10.8381 58.0966 10.8381Q57.1804 10.8381 56.6087 11.424Q56.0369 12.0099 56.0298 13.0682Z" fill="#000000" />
    <path d="M3.77131 19.375L0.475852 19.375L5.49716 4.82955L9.46023 4.82955L14.4744 19.375L11.179 19.375L10.0994 16.0582L4.85085 16.0582L3.77131 19.375ZM5.6321 13.6577L9.32528 13.6577L7.53551 8.15341L7.42188 8.15341L5.6321 13.6577ZM19.1903 13.0682L19.1903 19.375L16.1648 19.375L16.1648 8.46591L19.0483 8.46591L19.0483 10.3906L19.1761 10.3906Q19.5455 9.43892 20.3942 8.88139Q21.2429 8.32386 22.4574 8.32386Q24.1619 8.32386 25.1918 9.42116Q26.2216 10.5185 26.2216 12.429L26.2216 19.375L23.196 19.375L23.196 12.9688Q23.2031 11.9673 22.6847 11.4027Q22.1662 10.8381 21.2571 10.8381Q20.3409 10.8381 19.7692 11.424Q19.1974 12.0099 19.1903 13.0682ZM31.7116 19.581Q30.1491 19.581 29.1193 18.7642Q28.0895 17.9474 28.0895 16.3281Q28.0895 15.1065 28.6648 14.4105Q29.2401 13.7145 30.174 13.3913Q31.108 13.0682 32.1875 12.9688Q33.608 12.8267 34.2188 12.6705Q34.8295 12.5142 34.8295 11.9886L34.8295 11.946Q34.8295 11.2713 34.407 10.902Q33.9844 10.5327 33.2102 10.5327Q32.3935 10.5327 31.9105 10.8878Q31.4276 11.2429 31.2713 11.7898L28.473 11.5625Q28.7855 10.071 30.0249 9.19744Q31.2642 8.32386 33.2244 8.32386Q34.4389 8.32386 35.4972 8.70739Q36.5554 9.09091 37.2053 9.90412Q37.8551 10.7173 37.8551 12.017L37.8551 19.375L34.9858 19.375L34.9858 17.8622L34.9006 17.8622Q34.5028 18.6222 33.7109 19.1016Q32.919 19.581 31.7116 19.581ZM32.5781 17.4929Q33.5724 17.4929 34.2116 16.9141Q34.8509 16.3352 34.8509 15.4759L34.8509 14.3182Q34.6733 14.4389 34.3004 14.5313Q33.9276 14.6236 33.505 14.6911Q33.0824 14.7585 32.7486 14.8082Q31.9531 14.9219 31.4666 15.2557Q30.9801 15.5895 30.9801 16.2287Q30.9801 16.8537 31.4311 17.1733Q31.8821 17.4929 32.5781 17.4929ZM43.2315 4.82955L43.2315 19.375L40.206 19.375L40.206 4.82955L43.2315 4.82955ZM47.5142 23.4659Q46.9389 23.4659 46.4382 23.3771Q45.9375 23.2884 45.6108 23.1534L46.2926 20.8949Q47.0952 21.1364 47.6563 21.0263Q48.2173 20.9162 48.5156 20.1491L48.6932 19.6875L44.7798 8.46591L47.9617 8.46591L50.2202 16.4773L50.3338 16.4773L52.6136 8.46591L55.8168 8.46591L51.5767 20.554Q51.1151 21.875 50.1598 22.6705Q49.2045 23.4659 47.5142 23.4659ZM57.3082 19.375L57.3082 17.571L62.6492 10.9588L62.6492 10.8807L57.4929 10.8807L57.4929 8.46591L66.2926 8.46591L66.2926 10.4332L61.2784 16.8821L61.2784 16.9602L66.4773 16.9602L66.4773 19.375L57.3082 19.375ZM73.4588 19.5881Q71.7827 19.5881 70.5682 18.9027Q69.3537 18.2173 68.7003 16.9567Q68.0469 15.696 68.0469 13.9702Q68.0469 12.2869 68.7003 11.0156Q69.3537 9.74432 70.5433 9.03409Q71.733 8.32386 73.3381 8.32386Q74.7798 8.32386 75.9411 8.93466Q77.1023 9.54545 77.7841 10.7777Q78.4659 12.0099 78.4659 13.8636L78.4659 14.6946L71.0369 14.6946L71.0369 14.7017Q71.0369 15.9233 71.7045 16.6264Q72.3722 17.3295 73.5085 17.3295Q74.2685 17.3295 74.8224 17.0099Q75.3764 16.6903 75.6037 16.0653L78.402 16.25Q78.0824 17.7699 76.7827 18.679Q75.483 19.5881 73.4588 19.5881ZM71.0369 12.8196L75.6179 12.8196Q75.6108 11.8466 74.9929 11.2145Q74.375 10.5824 73.3878 10.5824Q72.3793 10.5824 71.733 11.2358Q71.0866 11.8892 71.0369 12.8196ZM80.4403 19.375L80.4403 8.46591L83.3736 8.46591L83.3736 10.3693L83.4872 10.3693Q83.7855 9.35369 84.4886 8.83168Q85.1918 8.30966 86.108 8.30966Q86.6122 8.30966 87.0597 8.41619L87.0597 11.1009Q86.8466 11.0298 86.4702 10.9837Q86.0938 10.9375 85.7813 10.9375Q84.7798 10.9375 84.1229 11.5661Q83.4659 12.1946 83.4659 13.2031L83.4659 19.375L80.4403 19.375Z" transform="translate(64.233 0)" fill="#00EEF6" />
</svg>